{
	"asset":{
		"generator":"Khronos glTF Blender I/O v3.5.30",
		"version":"2.0"
	},
	"scene":0,
	"scenes":[
		{
			"name":"Scene",
			"nodes":[
				6
			]
		}
	],
	"nodes":[
		{
			"mesh":0,
			"name":"DeathStar001_1_0"
		},
		{
			"children":[
				0
			],
			"name":"DeathStar001",
			"rotation":[
				-0.70710688829422,
				0,
				0,
				0.7071066498756409
			]
		},
		{
			"mesh":1,
			"name":"DeathStar_misa001_2_0"
		},
		{
			"children":[
				2
			],
			"name":"DeathStar_misa001",
			"rotation":[
				-0.70710688829422,
				0,
				0,
				0.7071066498756409
			]
		},
		{
			"children":[
				1,
				3
			],
			"name":"RootNode"
		},
		{
			"children":[
				4
			],
			"name":"9fb606eea19e48a5820249806d88aaa0.fbx",
			"rotation":[
				0.70710688829422,
				0,
				0,
				0.7071066498756409
			]
		},
		{
			"children":[
				5
			],
			"name":"Sketchfab_model",
			"rotation":[
				-0.7071068286895752,
				0,
				0,
				0.7071068286895752
			]
		}
	],
	"materials":[
		{
			"doubleSided":true,
			"emissiveFactor":[
				0.25,
				0.25,
				0.25
			],
			"emissiveTexture":{
				"index":0
			},
			"name":"material",
			"normalTexture":{
				"index":1
			},
			"pbrMetallicRoughness":{
				"baseColorTexture":{
					"index":2
				}
			}
		},
		{
			"doubleSided":true,
			"name":"material_1",
			"normalTexture":{
				"index":3
			},
			"pbrMetallicRoughness":{
				"baseColorTexture":{
					"index":4
				}
			}
		}
	],
	"meshes":[
		{
			"name":"DeathStar001_1_0",
			"primitives":[
				{
					"attributes":{
						"POSITION":0,
						"TEXCOORD_0":1,
						"NORMAL":2
					},
					"indices":3,
					"material":0
				}
			]
		},
		{
			"name":"DeathStar_misa001_2_0",
			"primitives":[
				{
					"attributes":{
						"POSITION":4,
						"TEXCOORD_0":5,
						"NORMAL":6
					},
					"indices":7,
					"material":1
				}
			]
		}
	],
	"textures":[
		{
			"sampler":0,
			"source":0
		},
		{
			"sampler":0,
			"source":1
		},
		{
			"sampler":0,
			"source":2
		},
		{
			"sampler":0,
			"source":3
		},
		{
			"sampler":0,
			"source":4
		}
	],
	"images":[
		{
			"mimeType":"image/png",
			"name":"material_emissive",
			"uri":"textures/material_emissive.png"
		},
		{
			"mimeType":"image/png",
			"name":"material_normal",
			"uri":"textures/material_normal.png"
		},
		{
			"mimeType":"image/jpeg",
			"name":"material_baseColor",
			"uri":"textures/material_baseColor.jpg"
		},
		{
			"mimeType":"image/png",
			"name":"material_1_normal",
			"uri":"textures/material_1_normal.png"
		},
		{
			"mimeType":"image/jpeg",
			"name":"material_1_baseColor",
			"uri":"textures/material_1_baseColor.jpg"
		}
	],
	"accessors":[
		{
			"bufferView":0,
			"componentType":5126,
			"count":20043,
			"max":[
				49.98550033569336,
				49.98550033569336,
				50
			],
			"min":[
				-49.98550033569336,
				-50.51262664794922,
				-50
			],
			"type":"VEC3"
		},
		{
			"bufferView":1,
			"componentType":5126,
			"count":20043,
			"type":"VEC2"
		},
		{
			"bufferView":2,
			"componentType":5126,
			"count":20043,
			"type":"VEC3"
		},
		{
			"bufferView":3,
			"componentType":5123,
			"count":94668,
			"type":"SCALAR"
		},
		{
			"bufferView":4,
			"componentType":5126,
			"count":1562,
			"max":[
				14.437118530273438,
				-39.149288177490234,
				31.077192306518555
			],
			"min":[
				-14.436775207519531,
				-49.86857986450195,
				4.187440872192383
			],
			"type":"VEC3"
		},
		{
			"bufferView":5,
			"componentType":5126,
			"count":1562,
			"type":"VEC2"
		},
		{
			"bufferView":6,
			"componentType":5126,
			"count":1562,
			"type":"VEC3"
		},
		{
			"bufferView":7,
			"componentType":5123,
			"count":5673,
			"type":"SCALAR"
		}
	],
	"bufferViews":[
		{
			"buffer":0,
			"byteLength":240516,
			"byteOffset":0,
			"target":34962
		},
		{
			"buffer":0,
			"byteLength":160344,
			"byteOffset":240516,
			"target":34962
		},
		{
			"buffer":0,
			"byteLength":240516,
			"byteOffset":400860,
			"target":34962
		},
		{
			"buffer":0,
			"byteLength":189336,
			"byteOffset":641376,
			"target":34963
		},
		{
			"buffer":0,
			"byteLength":18744,
			"byteOffset":830712,
			"target":34962
		},
		{
			"buffer":0,
			"byteLength":12496,
			"byteOffset":849456,
			"target":34962
		},
		{
			"buffer":0,
			"byteLength":18744,
			"byteOffset":861952,
			"target":34962
		},
		{
			"buffer":0,
			"byteLength":11346,
			"byteOffset":880696,
			"target":34963
		}
	],
	"samplers":[
		{
			"magFilter":9729,
			"minFilter":9987
		}
	],
	"buffers":[
		{
			"byteLength":892044,
			"uri":"scene.bin"
		}
	]
}
