<svg
      xmlns="http://www.w3.org/2000/svg"
      version="1.1"
      width = "1920px"
      height = "1080px"
    >
     <circle fill="white" cx="1299" cy="799" r="1.0" /><circle fill="white" cx="280" cy="827" r="0.3" /><circle fill="white" cx="1722" cy="195" r="0.3" /><circle fill="white" cx="1103" cy="453" r="0.4" /><circle fill="white" cx="181" cy="480" r="0.3" /><circle fill="white" cx="1300" cy="691" r="0.2" /><circle fill="white" cx="648" cy="431" r="1.0" /><circle fill="white" cx="1560" cy="45" r="0.2" /><circle fill="white" cx="907" cy="9" r="0.5" /><circle fill="white" cx="849" cy="696" r="0.7" /><circle fill="white" cx="1788" cy="95" r="0.6" /><circle fill="white" cx="386" cy="912" r="0.6" /><circle fill="white" cx="785" cy="225" r="0.4" /><circle fill="white" cx="326" cy="91" r="1.0" /><circle fill="white" cx="1808" cy="564" r="0.8" /><circle fill="white" cx="55" cy="607" r="0.9" /><circle fill="white" cx="538" cy="667" r="1.0" /><circle fill="white" cx="125" cy="468" r="0.3" /><circle fill="white" cx="1287" cy="89" r="0.8" /><circle fill="white" cx="1201" cy="671" r="0.7" /><circle fill="white" cx="187" cy="271" r="0.5" /><circle fill="white" cx="1832" cy="821" r="0.2" /><circle fill="white" cx="134" cy="133" r="0.8" /><circle fill="white" cx="107" cy="484" r="0.2" /><circle fill="white" cx="80" cy="617" r="0.9" /><circle fill="white" cx="1502" cy="1056" r="0.9" /><circle fill="white" cx="1076" cy="278" r="0.6" /><circle fill="white" cx="1205" cy="161" r="0.4" /><circle fill="white" cx="845" cy="208" r="0.8" /><circle fill="white" cx="1689" cy="532" r="1.0" /><circle fill="white" cx="1474" cy="123" r="0.9" /><circle fill="white" cx="1071" cy="524" r="0.3" /><circle fill="white" cx="383" cy="457" r="0.7" /><circle fill="white" cx="1560" cy="504" r="0.5" /><circle fill="white" cx="1235" cy="728" r="0.9" /><circle fill="white" cx="1777" cy="818" r="0.5" /><circle fill="white" cx="261" cy="153" r="1.0" /><circle fill="white" cx="315" cy="769" r="0.6" /><circle fill="white" cx="1334" cy="217" r="0.5" /><circle fill="white" cx="453" cy="642" r="0.5" /><circle fill="white" cx="691" cy="315" r="0.7" /><circle fill="white" cx="1550" cy="134" r="1.0" /><circle fill="white" cx="144" cy="573" r="0.1" /><circle fill="white" cx="1630" cy="506" r="0.7" /><circle fill="white" cx="1303" cy="497" r="0.4" /><circle fill="white" cx="484" cy="977" r="0.6" /><circle fill="white" cx="1464" cy="27" r="0.9" /><circle fill="white" cx="679" cy="423" r="0.1" /><circle fill="white" cx="986" cy="577" r="0.6" /><circle fill="white" cx="1499" cy="600" r="0.2" /><circle fill="white" cx="1387" cy="677" r="0.5" /><circle fill="white" cx="719" cy="1076" r="0.4" /><circle fill="white" cx="1097" cy="698" r="0.4" /><circle fill="white" cx="530" cy="504" r="0.2" /><circle fill="white" cx="258" cy="1040" r="1.1" /><circle fill="white" cx="586" cy="224" r="1.1" /><circle fill="white" cx="1641" cy="479" r="0.4" /><circle fill="white" cx="574" cy="426" r="0.7" /><circle fill="white" cx="828" cy="417" r="0.3" /><circle fill="white" cx="559" cy="130" r="0.4" /><circle fill="white" cx="1456" cy="502" r="0.6" /><circle fill="white" cx="183" cy="1023" r="0.7" /><circle fill="white" cx="1457" cy="1004" r="0.8" /><circle fill="white" cx="138" cy="789" r="0.4" /><circle fill="white" cx="245" cy="442" r="0.8" /><circle fill="white" cx="1271" cy="125" r="0.9" /><circle fill="white" cx="1834" cy="839" r="1.1" /><circle fill="white" cx="181" cy="861" r="0.8" /><circle fill="white" cx="1230" cy="639" r="0.5" /><circle fill="white" cx="1170" cy="825" r="0.3" /><circle fill="white" cx="1072" cy="311" r="0.6" /><circle fill="white" cx="1254" cy="1070" r="0.4" /><circle fill="white" cx="953" cy="810" r="0.8" /><circle fill="white" cx="1670" cy="549" r="0.8" /><circle fill="white" cx="1662" cy="784" r="1.1" /><circle fill="white" cx="1669" cy="601" r="0.2" /><circle fill="white" cx="817" cy="518" r="0.7" /><circle fill="white" cx="1004" cy="1024" r="0.2" /><circle fill="white" cx="1170" cy="98" r="0.3" /><circle fill="white" cx="856" cy="429" r="0.6" /><circle fill="white" cx="544" cy="697" r="0.3" /><circle fill="white" cx="1786" cy="207" r="0.7" /><circle fill="white" cx="1678" cy="899" r="0.7" /><circle fill="white" cx="1085" cy="907" r="0.6" /><circle fill="white" cx="944" cy="861" r="0.8" /><circle fill="white" cx="849" cy="126" r="0.3" /><circle fill="white" cx="1246" cy="955" r="0.7" /><circle fill="white" cx="884" cy="740" r="0.1" /><circle fill="white" cx="460" cy="572" r="0.3" /><circle fill="white" cx="276" cy="1004" r="0.2" /><circle fill="white" cx="1418" cy="517" r="0.3" /><circle fill="white" cx="1666" cy="390" r="0.1" /><circle fill="white" cx="985" cy="1027" r="0.9" /><circle fill="white" cx="651" cy="268" r="0.4" /><circle fill="white" cx="270" cy="688" r="1.1" /><circle fill="white" cx="561" cy="416" r="0.3" /><circle fill="white" cx="538" cy="705" r="0.4" /><circle fill="white" cx="1534" cy="762" r="0.6" /><circle fill="white" cx="309" cy="459" r="0.9" /><circle fill="white" cx="1226" cy="478" r="0.9" /><circle fill="white" cx="1190" cy="184" r="1.0" /><circle fill="white" cx="19" cy="752" r="0.2" /><circle fill="white" cx="1323" cy="936" r="0.6" /><circle fill="white" cx="852" cy="737" r="0.8" /><circle fill="white" cx="269" cy="390" r="0.1" /><circle fill="white" cx="1698" cy="729" r="0.6" /><circle fill="white" cx="1307" cy="904" r="0.1" /><circle fill="white" cx="1672" cy="426" r="1.0" /><circle fill="white" cx="36" cy="222" r="0.2" /><circle fill="white" cx="951" cy="149" r="1.1" /><circle fill="white" cx="1665" cy="997" r="0.5" /><circle fill="white" cx="1127" cy="428" r="0.7" /><circle fill="white" cx="1860" cy="312" r="0.9" /><circle fill="white" cx="441" cy="1015" r="0.9" /><circle fill="white" cx="144" cy="528" r="0.4" /><circle fill="white" cx="1324" cy="579" r="0.7" /><circle fill="white" cx="366" cy="387" r="0.7" /><circle fill="white" cx="1207" cy="872" r="0.7" /><circle fill="white" cx="1650" cy="505" r="0.9" /><circle fill="white" cx="660" cy="199" r="0.3" /><circle fill="white" cx="34" cy="851" r="0.7" /><circle fill="white" cx="1359" cy="466" r="0.6" /><circle fill="white" cx="1881" cy="53" r="0.8" /><circle fill="white" cx="624" cy="412" r="1.0" /><circle fill="white" cx="821" cy="364" r="0.4" /><circle fill="white" cx="375" cy="878" r="0.8" /><circle fill="white" cx="322" cy="289" r="0.2" /><circle fill="white" cx="127" cy="831" r="0.6" /><circle fill="white" cx="903" cy="946" r="0.8" /><circle fill="white" cx="1864" cy="120" r="0.4" /><circle fill="white" cx="1116" cy="610" r="0.6" /><circle fill="white" cx="576" cy="384" r="0.6" /><circle fill="white" cx="511" cy="564" r="0.1" /><circle fill="white" cx="912" cy="108" r="0.8" /><circle fill="white" cx="692" cy="804" r="0.5" /><circle fill="white" cx="637" cy="941" r="0.3" /><circle fill="white" cx="394" cy="295" r="0.6" /><circle fill="white" cx="1728" cy="160" r="0.6" /><circle fill="white" cx="452" cy="699" r="0.3" /><circle fill="white" cx="54" cy="807" r="0.6" /><circle fill="white" cx="729" cy="924" r="0.3" /><circle fill="white" cx="1167" cy="529" r="0.2" /><circle fill="white" cx="1334" cy="770" r="0.4" /><circle fill="white" cx="1717" cy="763" r="0.2" /><circle fill="white" cx="256" cy="923" r="0.5" /><circle fill="white" cx="1758" cy="104" r="0.8" /><circle fill="white" cx="718" cy="536" r="0.5" /><circle fill="white" cx="1510" cy="540" r="0.3" /><circle fill="white" cx="112" cy="422" r="0.1" /><circle fill="white" cx="223" cy="617" r="0.9" /><circle fill="white" cx="896" cy="279" r="0.9" /><circle fill="white" cx="1538" cy="886" r="0.4" /><circle fill="white" cx="10" cy="12" r="1.0" /><circle fill="white" cx="1520" cy="969" r="0.6" /><circle fill="white" cx="280" cy="825" r="0.6" /><circle fill="white" cx="1856" cy="709" r="0.3" /><circle fill="white" cx="964" cy="17" r="1.0" /><circle fill="white" cx="544" cy="819" r="1.0" /><circle fill="white" cx="1318" cy="899" r="1.1" /><circle fill="white" cx="1188" cy="1038" r="0.4" /><circle fill="white" cx="234" cy="223" r="0.5" /><circle fill="white" cx="1045" cy="1075" r="0.6" /><circle fill="white" cx="704" cy="945" r="0.6" /><circle fill="white" cx="1575" cy="382" r="0.8" /><circle fill="white" cx="1764" cy="689" r="0.3" /><circle fill="white" cx="1375" cy="625" r="1.0" /><circle fill="white" cx="110" cy="1069" r="0.5" /><circle fill="white" cx="49" cy="50" r="0.9" /><circle fill="white" cx="554" cy="617" r="0.5" /><circle fill="white" cx="1754" cy="479" r="0.6" /><circle fill="white" cx="557" cy="945" r="0.6" /><circle fill="white" cx="755" cy="1024" r="0.8" /><circle fill="white" cx="526" cy="399" r="0.8" /><circle fill="white" cx="1399" cy="404" r="0.6" /><circle fill="white" cx="811" cy="1001" r="0.8" /><circle fill="white" cx="1168" cy="136" r="0.8" /><circle fill="white" cx="139" cy="1072" r="0.7" /><circle fill="white" cx="372" cy="995" r="0.3" /><circle fill="white" cx="1360" cy="132" r="1.1" /><circle fill="white" cx="975" cy="210" r="0.4" /><circle fill="white" cx="80" cy="190" r="0.5" /><circle fill="white" cx="1731" cy="269" r="1.0" /><circle fill="white" cx="1646" cy="247" r="0.5" /><circle fill="white" cx="413" cy="1073" r="0.4" /><circle fill="white" cx="663" cy="1036" r="0.5" /><circle fill="white" cx="418" cy="431" r="0.8" /><circle fill="white" cx="1234" cy="849" r="0.2" /><circle fill="white" cx="37" cy="810" r="0.7" /><circle fill="white" cx="437" cy="539" r="1.0" /><circle fill="white" cx="1798" cy="711" r="0.9" /><circle fill="white" cx="1559" cy="768" r="0.2" /><circle fill="white" cx="235" cy="341" r="0.6" /><circle fill="white" cx="1113" cy="984" r="1.1" /><circle fill="white" cx="1415" cy="463" r="0.9" /><circle fill="white" cx="208" cy="486" r="0.4" /><circle fill="white" cx="1883" cy="671" r="0.2" /><circle fill="white" cx="735" cy="543" r="0.8" /><circle fill="white" cx="923" cy="455" r="0.2" /><circle fill="white" cx="1831" cy="278" r="0.9" /><circle fill="white" cx="599" cy="143" r="0.8" /><circle fill="white" cx="991" cy="998" r="0.6" /><circle fill="white" cx="1644" cy="126" r="0.4" /><circle fill="white" cx="1826" cy="248" r="0.9" /><circle fill="white" cx="1501" cy="394" r="0.5" /><circle fill="white" cx="1576" cy="227" r="0.7" /><circle fill="white" cx="1037" cy="1042" r="0.3" /><circle fill="white" cx="1200" cy="22" r="0.7" /><circle fill="white" cx="766" cy="264" r="0.5" /><circle fill="white" cx="1043" cy="773" r="0.6" /><circle fill="white" cx="783" cy="364" r="0.2" /><circle fill="white" cx="1696" cy="745" r="1.0" /><circle fill="white" cx="104" cy="551" r="0.1" /><circle fill="white" cx="42" cy="785" r="0.1" /><circle fill="white" cx="1469" cy="20" r="0.5" /><circle fill="white" cx="476" cy="16" r="1.1" /><circle fill="white" cx="745" cy="401" r="0.5" /><circle fill="white" cx="1805" cy="529" r="0.3" /><circle fill="white" cx="1" cy="427" r="0.8" /><circle fill="white" cx="1285" cy="275" r="0.2" /><circle fill="white" cx="715" cy="96" r="0.5" /><circle fill="white" cx="582" cy="688" r="0.6" /><circle fill="white" cx="550" cy="493" r="0.6" /><circle fill="white" cx="1092" cy="602" r="1.0" /><circle fill="white" cx="513" cy="662" r="0.5" /><circle fill="white" cx="1855" cy="120" r="0.6" /><circle fill="white" cx="1914" cy="744" r="0.6" /><circle fill="white" cx="107" cy="662" r="0.4" /><circle fill="white" cx="69" cy="371" r="0.3" /><circle fill="white" cx="162" cy="981" r="0.5" /><circle fill="white" cx="1424" cy="382" r="1.1" /><circle fill="white" cx="1791" cy="252" r="0.4" /><circle fill="white" cx="457" cy="201" r="0.4" /><circle fill="white" cx="758" cy="293" r="1.0" /><circle fill="white" cx="1223" cy="114" r="0.5" /><circle fill="white" cx="627" cy="83" r="0.6" /><circle fill="white" cx="1575" cy="781" r="0.3" /><circle fill="white" cx="1268" cy="543" r="1.0" /><circle fill="white" cx="886" cy="1053" r="0.8" /><circle fill="white" cx="429" cy="956" r="0.6" /><circle fill="white" cx="1617" cy="148" r="1.0" /><circle fill="white" cx="690" cy="142" r="0.6" /><circle fill="white" cx="754" cy="324" r="0.1" /><circle fill="white" cx="301" cy="1014" r="0.8" /><circle fill="white" cx="323" cy="619" r="0.3" /><circle fill="white" cx="1724" cy="535" r="0.3" /><circle fill="white" cx="1277" cy="659" r="0.5" /><circle fill="white" cx="1281" cy="576" r="0.7" /><circle fill="white" cx="1832" cy="21" r="0.6" /><circle fill="white" cx="41" cy="594" r="0.3" /><circle fill="white" cx="456" cy="579" r="0.4" /><circle fill="white" cx="315" cy="407" r="0.9" /><circle fill="white" cx="1000" cy="393" r="0.9" /><circle fill="white" cx="1386" cy="329" r="0.8" /><circle fill="white" cx="1034" cy="399" r="0.1" /><circle fill="white" cx="703" cy="489" r="0.1" /><circle fill="white" cx="950" cy="41" r="0.4" /><circle fill="white" cx="1900" cy="523" r="1.1" /><circle fill="white" cx="1055" cy="648" r="1.0" /><circle fill="white" cx="1477" cy="26" r="0.4" /><circle fill="white" cx="1548" cy="615" r="0.3" /><circle fill="white" cx="420" cy="589" r="0.7" /><circle fill="white" cx="1906" cy="450" r="0.6" /><circle fill="white" cx="1492" cy="950" r="1.0" /><circle fill="white" cx="1886" cy="425" r="0.2" /><circle fill="white" cx="739" cy="283" r="0.8" /><circle fill="white" cx="1669" cy="485" r="0.9" /><circle fill="white" cx="1182" cy="26" r="0.5" /><circle fill="white" cx="1316" cy="925" r="0.9" /><circle fill="white" cx="85" cy="421" r="0.9" /><circle fill="white" cx="558" cy="278" r="0.7" /><circle fill="white" cx="1554" cy="782" r="0.9" /><circle fill="white" cx="153" cy="183" r="0.3" /><circle fill="white" cx="845" cy="944" r="0.3" /><circle fill="white" cx="625" cy="129" r="0.6" /><circle fill="white" cx="1120" cy="740" r="0.5" /><circle fill="white" cx="466" cy="952" r="0.8" /><circle fill="white" cx="749" cy="15" r="0.6" /><circle fill="white" cx="25" cy="155" r="1.0" /><circle fill="white" cx="1509" cy="793" r="0.6" /><circle fill="white" cx="146" cy="118" r="0.4" /><circle fill="white" cx="1253" cy="238" r="0.4" /><circle fill="white" cx="1672" cy="833" r="0.9" /><circle fill="white" cx="415" cy="131" r="0.2" /><circle fill="white" cx="1401" cy="356" r="0.7" /><circle fill="white" cx="530" cy="111" r="0.4" /><circle fill="white" cx="859" cy="640" r="0.9" /><circle fill="white" cx="716" cy="754" r="0.3" /><circle fill="white" cx="1169" cy="817" r="0.1" /><circle fill="white" cx="750" cy="629" r="0.8" /><circle fill="white" cx="54" cy="348" r="0.9" /><circle fill="white" cx="1707" cy="688" r="0.8" /><circle fill="white" cx="366" cy="1059" r="0.7" /><circle fill="white" cx="1857" cy="12" r="0.8" /><circle fill="white" cx="1268" cy="289" r="1.1" /><circle fill="white" cx="1779" cy="877" r="0.5" /><circle fill="white" cx="1440" cy="147" r="1.1" /><circle fill="white" cx="1778" cy="1005" r="0.8" /><circle fill="white" cx="1399" cy="888" r="0.1" /><circle fill="white" cx="1883" cy="325" r="0.4" /><circle fill="white" cx="1488" cy="316" r="0.4" />
    </svg>